<svg style="display: none;" xmlns="http://www.w3.org/2000/svg">
   <symbol id="close" viewBox="0 0 64 64"><path d="M64 3.765L60.29.063 32 28.3 3.71.063 0 3.765l28.29 28.236L0 60.235l3.71 3.702L32 35.703l28.29 28.234L64 60.235 35.708 32.001 64 3.765z"/></symbol>
    <symbol id="plus" viewBox="0 0 64 64"><path d="M64 30H34V0h-3.997v30H0v4h30.003v30h3.996V34H64v-4z"/></symbol>
    <symbol id="list" viewBox="0 0 64 52"><path d="M8.533 28.226H0v-4.923h8.533v4.923zm0-27.98H0V5.17h8.533V.246zm0 46.113H0v4.923h8.533V46.36zM64 23.303H17.395v4.923H64v-4.923zM64 .246H17.395V5.17H64V.246zm0 46.113H17.395v4.923H64V46.36z"/></symbol>
    <symbol id="search" viewBox="0 0 20 20"><path d="M7.01 13.82A6.808 6.808 0 0 1 .2 7.011c0-1.818.708-3.528 1.995-4.815a6.806 6.806 0 0 1 9.631 0 6.764 6.764 0 0 1 1.452 2.151 6.797 6.797 0 0 1-1.452 7.479 6.813 6.813 0 0 1-4.794 1.994H7.01zM7.024.976a6.068 6.068 0 0 0-4.282 1.77A6.03 6.03 0 0 0 .976 7.011c0 1.611.627 3.126 1.767 4.266a6.034 6.034 0 0 0 8.536 0c2.347-2.352 2.346-6.179-.002-8.532A6.035 6.035 0 0 0 7.024.976z"/><path d="M18.873 19.263a.39.39 0 0 1-.275-.114l-7.057-7.057a.391.391 0 0 1-.114-.276.393.393 0 0 1 .389-.388c.102 0 .2.041.275.115l7.057 7.057a.387.387 0 1 1-.275.663z"/></symbol>
    <symbol id="menubar" viewBox="0 0 22 17"><title>Menu</title><path fill="none" stroke="#424242" stroke-width=".83" stroke-linecap="round" stroke-miterlimit="10" d="M1.536 1.252h18.929M1.536 8.524h18.929M1.536 15.748h18.929"/></symbol>
    <symbol id="shoppingcart" viewBox="0 0 20 22"><path d="M14.774 8.338a.416.416 0 0 1-.422-.41V3.007c0-1.13-.946-2.05-2.111-2.05H7.176c-1.164 0-2.111.92-2.111 2.05v4.921c0 .226-.189.41-.422.41a.416.416 0 0 1-.422-.41V3.007c0-1.583 1.325-2.87 2.955-2.87h5.065c1.629 0 2.955 1.288 2.955 2.87v4.921c0 .227-.189.41-.422.41z"/><path d="M13.085 5.878H6.332c-.233 0-.422-.184-.422-.41s.189-.41.422-.41h6.754c.233 0 .422.184.422.41s-.19.41-.423.41z"/><path d="M.422 22C.189 22 0 21.777 0 21.502V5.556c0-.275.189-.498.422-.498h2.533c.233 0 .422.223.422.498s-.189.498-.422.498H.844v14.949h17.729V6.054h-2.111c-.233 0-.422-.223-.422-.498s.189-.498.422-.498h2.533c.233 0 .422.223.422.498v15.946c0 .275-.189.498-.422.498H.422z"/></symbol>
    <symbol id="menu-close" viewBox="0 0 612 792"><path stroke="#000" stroke-width=".83" stroke-miterlimit="10" d="M559.172 594.9a22.166 22.166 0 0 1-15.716-6.512L37.106 82.044c-8.684-8.672-8.684-22.76 0-31.432 8.684-8.684 22.754-8.684 31.438 0l506.35 506.344c8.684 8.672 8.684 22.76 0 31.432a22.159 22.159 0 0 1-15.722 6.512z"/><path d="M52.828 594.9a22.166 22.166 0 0 1-15.716-6.512c-8.684-8.672-8.684-22.76 0-31.432l506.344-506.35c8.684-8.684 22.754-8.684 31.438 0 8.684 8.672 8.684 22.76 0 31.432l-506.35 506.35a22.137 22.137 0 0 1-15.716 6.512z"/></symbol>
    <symbol id="heart" viewBox="0 0 64 58" ><path d="M45.975 2C40.02 2 34.76 5.277 32 10.214 29.24 5.277 23.979 2 18.025 2 9.19 2 2 9.225 2 18.106c0 7.11 4.912 15.628 14.6 25.315 7.043 7.043 13.974 12.04 14.265 12.249a1.944 1.944 0 0 0 2.27 0c.291-.21 7.222-5.206 14.266-12.25C57.088 33.735 62 25.218 62 18.107 62 9.226 54.811 2 45.975 2z" /></symbol>
    <symbol id="arrow-down" viewBox="0 0 129 129"><path d="M121.3 34.6c-1.6-1.6-4.2-1.6-5.8 0l-51 51.1-51.1-51.1c-1.6-1.6-4.2-1.6-5.8 0-1.6 1.6-1.6 4.2 0 5.8l53.9 53.9c.8.8 1.8 1.2 2.9 1.2 1 0 2.1-.4 2.9-1.2l53.9-53.9c1.7-1.6 1.7-4.2.1-5.8z"/></symbol>
</svg>
